<svg xmlns="http://www.w3.org/2000/svg" viewBox="0 0 2924.92 941.69"><defs><style>.cls-1{fill:#091f2c;}.cls-2{fill:#d50032;}.cls-3{fill:#fff;}</style></defs><g id="Capa_2" data-name="Capa 2"><g id="Capa_1-2" data-name="Capa 1"><rect class="cls-1" width="2924.92" height="941.69" rx="82.01"/><path class="cls-2" d="M697.72,185.86q-20.94-20.93-56-20.94t-56,20.94q-21,21-20.94,56V699q0,35.89,20.94,56.83t56,20.94q35,0,56-21.37T718.66,699V241.83Q718.66,206.8,697.72,185.86Z"/><path class="cls-2" d="M318.74,241.83q0-35-20.93-56t-56-20.94q-35,0-56,20.94t-20.94,56V699q0,35.89,20.94,56.83t56,20.94q35,0,56-21.37T318.74,699Z"/><path class="cls-3" d="M441.9,387.85q-35.88,0-59.39,23.93t-23.5,59q0,35.06,23.5,59t59.39,23.93q35,0,58.54-23.93t23.5-59q0-35-23.5-59T441.9,387.85Z"/><path class="cls-3" d="M1405.67,677.35,1179.46,212.93A79,79,0,0,0,1146,177.37a99.67,99.67,0,0,0-96.4,0,79.62,79.62,0,0,0-33,35.56L790.44,677.35q-7.71,16.29-7.71,31.71,0,28.28,23.56,48T859,776.75a68.26,68.26,0,0,0,36.42-10.28q16.71-10.29,26.13-30.85l40.19-89.26h275.42l40,89.26q9.42,20.57,25.71,30.85a66,66,0,0,0,36,10.28q29.12,0,51.84-19.71t22.71-48Q1413.39,693.63,1405.67,677.35ZM1015,528.12l84.81-188.38,84.4,188.38Z"/><path class="cls-3" d="M1555.66,164.94q-35.88,0-56.82,20.94t-20.94,56V699q0,35.9,20.94,56.83t56.82,20.93q36.73,0,58.11-20.93T1635.14,699V241.85q0-35-21.37-56T1555.66,164.94Z"/><path class="cls-3" d="M2202.06,507.33h0c-60.22-120-184-126.25-184-126.25a352.58,352.58,0,0,0-35.54-1.41q-48.92,0-85,15.45V288.17h248.73q75.49,0,75.5-62.48,0-29.49-19.1-45.13c-12.6-10.3-31.22-15.47-55.71-15.58l-.05,0h-330q-35.19,0-54.06,18.88t-18.88,54.91V476.63q0,23.17,16.31,37.33t40.33,14.16c13.72,0,26.32-3.8,38.61-9.44,4.22-1.85,9-4,14.13-5.67,0,0,46.68-18.73,95.41-14,8.06.41,15.81,2,23.13,3.4,137.62,27.45,126.41,161-24.55,153,0,0-9.69-.65-10.94-.63a297.77,297.77,0,0,1-50.49-7.6c-1.92-.48-3.84-.85-5.78-1.54-13.51-5-20.38-7.46-36.47-15.25l-17.16-8.58q-17.17-9.44-25.75-12.87t-21.45-3.44a43,43,0,0,0-16.87,3.37q-12,4.35-21.81,16.37-15.45,18.88-15.45,44.62,0,18.89,6.44,30.89t21,23.17c17.3,12.19,30.13,18.71,54.07,27.26,9.16,3.7,18.68,7.1,28.66,10.12a357.94,357.94,0,0,0,104.25,15.45h29.1q75.51,0,132.58-23.6t88.81-66.93q31.72-43.32,31.75-100Q2221.8,540.81,2202.06,507.33Z"/><path class="cls-3" d="M2684.49,653.52H2465.8V528.12h200.45q69.14,0,75.68-51.8c.14-1.13.32-2.23.42-3.39.22-2.61.35-5.29.35-8.08q0-29.87-19.33-45.69t-57.17-15.8H2465.8V288.17h218.69q75.5,0,75.5-62.48,0-29.49-19.09-45.13t-56.41-15.62H2384.23q-35.59,0-54.67,19.09t-19.09,54.68V703q0,35.6,19.09,54.68t54.67,19.09h300.26q37.31,0,56.41-15.62T2760,716Q2760,653.53,2684.49,653.52Z"/></g></g></svg>